<svg width="140" height="38" viewBox="0 0 140 38" fill="none" xmlns="http://www.w3.org/2000/svg">
<path fill-rule="evenodd" clip-rule="evenodd" d="M39.3063 19.3616C39.3063 21.8539 39.9632 24.6041 40.8779 26.1694C42.3082 28.6004 43.9656 29.1774 47.0841 29.1774C51.9214 29.1774 55.1811 23.2474 55.5556 22.4985C56.0712 21.4733 56.4702 20.4543 56.814 19.3677L57.0166 18.8889V29.1713H61.2216V4.6102H57.2437C56.9859 5.54329 57.0166 5.57398 56.9 6.04052C56.6114 7.48927 56.1817 9.41069 55.7827 10.8103C55.6108 11.3505 55.5249 11.8171 55.353 12.3511C54.2664 16.1694 52.5783 21.3812 49.6563 24.3155C47.7962 25.7704 44.7084 26.0344 43.849 22.5967C43.4193 20.9515 43.5605 18.7293 43.5605 16.7219C43.5912 12.6888 43.5605 8.64335 43.5605 4.6102H39.2941V19.3554L39.3063 19.3616Z" fill="#818CF8"/>
<path fill-rule="evenodd" clip-rule="evenodd" d="M94.4199 19.0669C90.442 25.9791 86.4088 25.752 86.4088 25.752C83.1737 25.6231 82.6887 22.7809 82.6887 22.7809C86.3229 23.6771 88.3241 21.8662 88.3241 21.8662C93.8735 16.7219 90.5586 12.3696 90.5586 12.3696C88.4407 9.4107 84.0945 11.1173 84.0945 11.1173C78.5451 13.3947 78.4285 20.2824 78.4285 20.2824C78.0847 25.7827 80.6875 27.9128 83.0325 28.7047C85.1197 29.4353 88.1277 29.245 90.0122 28.5451C97.4217 25.8564 100.43 14.911 100.43 14.911C101.657 16.1633 104.18 16.3597 104.18 16.3597C103.548 17.8515 103.18 19.337 103.039 20.5525C102.836 22.0933 102.664 23.8245 103.069 25.3653C103.468 26.857 104.5 27.7962 105.414 28.3426C108.361 30.0614 110.994 28.5697 112.541 27.3726C114.972 25.4512 116.292 22.6581 116.292 22.6581L113.376 21.0436C110.258 25.4635 108.428 25.4328 108.428 25.4328C105.912 25.6968 106.513 21.6391 106.513 21.6391C107.231 16.7895 109.546 13.5666 109.546 13.5666L107.225 11.9153C106.765 12.3266 106.225 12.523 105.709 12.5967C103.192 12.9773 102.13 11.5347 101.989 11.0436C101.7 10.1658 101.872 9.17743 101.872 9.17743L98.6679 8.4592L98.6372 8.52672L98.2075 9.76675C97.5199 11.7189 96.8324 13.7078 96.0589 15.6108C95.5985 16.8079 95.1135 17.8699 94.426 19.0669M82.6028 18.8705C82.6887 17.9251 84.1498 14.1989 86.9245 14.1989C89.9263 14.1989 87.7286 21.5408 82.6028 18.8705Z" fill="#818CF8"/>
<path fill-rule="evenodd" clip-rule="evenodd" d="M2.36344 30.2885C2.36344 32.3634 3.65257 33.7753 5.29162 33.7753H24.5488C26.7035 33.7753 28.3548 31.0497 27.0043 28.8091L19.0976 15.2241C18.8705 14.8312 18.6372 14.4015 18.3794 13.984C17.3726 12.3143 16.992 11.3075 14.6348 11.3075C12.6704 11.3075 11.7189 13.4991 10.7367 15.2241L5.00309 25.1197C4.54269 25.9239 4.06387 26.7342 3.55435 27.5752C3.05712 28.3978 2.3573 29.4045 2.3573 30.2885M14.7821 15.4942H15.0583C15.1811 16.016 20.4727 25.0092 21.3076 26.4027L23.4254 30.1412H6.40886C6.55006 29.6194 10.0798 23.7692 10.5893 22.8791C11.1725 21.86 14.6532 16.0344 14.7821 15.488V15.4942Z" fill="#818CF8"/>
<path fill-rule="evenodd" clip-rule="evenodd" d="M0 2.93432C0 4.54266 0.429711 4.94168 1.45488 6.64211L11.8846 24.5365C12.8238 26.1203 13.4377 26.5132 15.2056 26.5132C17.0902 26.5132 17.9251 24.6716 18.7907 23.1185L28.3487 6.72192C29.3861 5.00921 29.8588 4.55494 29.8588 2.92818C29.8588 1.46716 28.3855 0 26.9306 0H2.92818C1.4733 0.00613874 0 1.47944 0 2.93432ZM4.04543 3.63413H25.8134L19.7851 14.0761C19.1283 15.1565 15.1872 21.8293 15.0645 22.3327H14.7882C14.6777 21.86 13.806 20.4604 13.5236 19.9693C11.3321 16.1449 8.8582 12.1547 6.73419 8.3364C6.28607 7.53223 5.85021 6.86311 5.38981 6.05279C4.90485 5.18109 4.49355 4.49969 4.03929 3.64027L4.04543 3.63413Z" fill="#FF8C4D"/>
<path fill-rule="evenodd" clip-rule="evenodd" d="M122.744 29.1713V18.5635C122.744 18.5635 122.744 11.2155 127.808 10.7551C132.959 10.2578 134.764 14.3953 136.28 18.6188C137.796 22.8422 137.999 18.2996 137.999 18.2996L139.202 29.1713H136.286C136.286 29.1713 135.574 26.6667 134.653 23.7385C133.168 19.2572 131.246 14.1866 128.502 14.2787C128.502 14.2787 126.587 14.383 126.384 19.1283V29.1774H122.75L122.744 29.1713Z" fill="#FF8C4D"/>
<path d="M140 10.7551H136.28V29.1713H140V10.7551Z" fill="#FF8C4D"/>
<path d="M121.228 4.61634H117.508V29.1713H121.228V4.61634Z" fill="#FF8C4D"/>
<path fill-rule="evenodd" clip-rule="evenodd" d="M60.1412 37.5629H61.3996C64.0025 37.4954 66.9245 37.0411 69.5519 35.752C69.5519 35.752 77.3358 32.5599 76.8201 25.8686C76.8201 25.8686 76.7035 20.4236 70.2701 19.2081C70.2701 19.2081 66.9245 18.6126 66.5193 16.9306C66.2308 15.6538 67.2376 13.8674 70.2701 12.4862C70.2701 12.4862 75.5065 10.1166 74.3892 14.7268L73.7876 17.2314L77.0227 18.2566C77.0227 18.2566 79.8527 11.3382 75.8195 9.15899C71.0682 6.65439 65.7213 10.841 65.7213 10.841C65.7213 10.841 63.2597 12.4309 62.7747 15.3039C62.6028 16.3843 62.6028 17.7409 63.1492 18.8275C63.5789 19.736 64.6102 20.9454 66.9245 21.7495C66.9245 21.7495 74.9908 23.5236 72.9896 28.2689C72.9896 28.2689 68.7538 36.3106 54.5058 33.1185L53.6157 36.7035C53.6157 36.7035 56.4211 37.4893 60.1412 37.5629Z" fill="#818CF8"/>
</svg>
